<svg width="64" height="64" viewBox="0 0 64 64" fill="none" xmlns="http://www.w3.org/2000/svg">
<path d="M0 0H64V64H0V0Z" fill="#63D1BB"/>
<path d="M26.9107 46.5836C26.9107 41.2989 26.4548 36.1653 26.3028 30.8806C26.3028 30.4276 26.3028 29.8237 26.3028 29.3707C26.3028 29.5217 26.4548 29.6727 26.4548 29.9747C27.2146 32.0885 28.1265 34.0514 29.1903 35.8633C30.2541 37.6752 30.862 39.789 31.4699 41.7519C31.1659 42.0539 31.014 42.3559 31.1659 42.6579C31.1659 42.9598 31.3179 42.9598 31.4699 43.1108C32.2297 43.8658 33.7495 43.4128 34.6613 43.1108C34.9652 42.9598 35.4212 42.8089 35.7251 42.5069C36.181 42.2049 36.7889 41.6009 36.6369 40.997C36.6369 40.846 36.6369 40.695 36.485 40.695C37.0929 39.0341 37.3968 37.3732 37.7007 35.7123C38.0047 33.9004 38.7646 32.2395 39.3724 30.4276C39.3724 31.1826 39.5244 31.9375 39.5244 32.8435C39.8284 36.0143 39.5244 39.3361 39.5244 42.5069C39.5244 43.5638 39.5244 44.6207 39.8284 45.6777C39.9803 46.1306 40.2843 47.9425 40.1323 48.0935C39.3724 48.8485 39.5244 49.7544 40.5882 49.9054C41.804 50.2074 43.3237 49.7544 44.0836 48.9995C45.6033 47.6405 44.8435 45.3757 44.5395 43.5638C43.9316 40.544 44.6915 37.2222 44.5395 34.2024C44.3875 30.7296 43.9316 27.4078 43.9316 23.935C43.9316 21.2172 44.3875 18.3484 43.4757 15.6305C43.4757 15.3286 43.6277 15.0266 43.6277 14.7246C43.9316 13.3657 39.3724 14.1206 38.7646 15.3286C38.3086 15.6305 38.1567 16.0835 38.3086 16.5365C38.3086 16.6875 38.4606 16.6875 38.4606 16.8385C37.5488 20.9152 36.485 24.841 35.1172 28.7667C34.6613 30.2766 34.0534 31.7865 33.4455 33.2964C32.6857 31.9375 31.9258 30.4276 31.3179 29.0687C29.4942 24.69 27.9745 20.3113 25.8469 16.0835C26.1508 14.1206 21.7436 14.2716 20.8318 16.0835C19.768 18.1974 19.92 20.4622 20.2239 22.7271C20.6798 25.2939 20.6798 27.8608 20.6798 30.4276C20.6798 35.4103 21.1357 40.544 21.2877 45.5267C20.8318 45.9797 20.6798 46.5836 21.1357 47.3386C21.2877 47.6406 21.5916 47.7915 21.8956 48.0935C23.7193 49.1505 26.9107 48.3955 26.9107 46.5836Z" fill="black"/>
</svg>
