<svg width="144" height="144" fill="none" xmlns="http://www.w3.org/2000/svg"><circle cx="72" cy="72" r="72" fill="#7FE3D7"/><path d="M59.549 104.313c0-11.89-1.026-23.441-1.368-35.332v-3.397c0 .34.342.68.342 1.359 1.71 4.756 3.762 9.173 6.155 13.25 2.394 4.076 3.761 8.832 5.13 13.249-.685.68-1.027 1.359-.685 2.038 0 .68.342.68.684 1.02 1.71 1.698 5.13.679 7.18 0 .685-.34 1.71-.68 2.395-1.36 1.025-.679 2.393-2.038 2.051-3.397 0-.34 0-.68-.342-.68 1.368-3.736 2.052-7.473 2.736-11.21.684-4.077 2.393-7.814 3.761-11.89 0 1.698.342 3.396.342 5.435.684 7.134 0 14.608 0 21.743 0 2.378 0 4.756.684 7.134.342 1.019 1.026 5.096.684 5.435-1.71 1.699-1.368 3.737 1.025 4.077 2.736.68 6.155-.34 7.865-2.038 3.419-3.058 1.71-8.154 1.026-12.23-1.368-6.795.342-14.27 0-21.064-.342-7.813-1.368-15.287-1.368-23.101 0-6.115 1.026-12.57-1.026-18.685 0-.68.342-1.36.342-2.039.684-3.057-9.574-1.359-10.942 1.36-1.026.679-1.367 1.698-1.026 2.717 0 .34.342.34.342.68-2.051 9.172-4.445 18.005-7.522 26.838-1.026 3.397-2.394 6.795-3.762 10.192a123.778 123.778 0 01-4.787-9.512c-4.103-9.852-7.522-19.705-12.31-29.217.684-4.417-9.232-4.077-11.284 0-2.393 4.756-2.051 9.852-1.367 14.948 1.026 5.775 1.026 11.55 1.026 17.326 0 11.211 1.025 22.762 1.367 33.973-1.026 1.019-1.367 2.378-.342 4.077.342.679 1.026 1.019 1.71 1.698 4.103 2.379 11.284.68 11.284-3.397z" fill="#000"/></svg>